<svg width="64" height="64" viewBox="0 0 64 64" fill="none" xmlns="http://www.w3.org/2000/svg">
  <!-- Main Body (Avocado-like shape) -->
  <ellipse cx="32" cy="38" rx="18" ry="22" fill="#7bed9f" stroke="#2ed573" stroke-width="2"/>
  
  <!-- Inner lighter green -->
  <ellipse cx="32" cy="38" rx="14" ry="18" fill="#a4f7c0"/>
  
  <!-- Cute face -->
  <!-- Eyes -->
  <circle cx="26" cy="32" r="3" fill="#2d3436"/>
  <circle cx="38" cy="32" r="3" fill="#2d3436"/>
  
  <!-- Eye highlights -->
  <circle cx="27" cy="31" r="1" fill="white"/>
  <circle cx="39" cy="31" r="1" fill="white"/>
  
  <!-- Rosy cheeks -->
  <circle cx="20" cy="36" r="2.5" fill="#ff6b9d" opacity="0.6"/>
  <circle cx="44" cy="36" r="2.5" fill="#ff6b9d" opacity="0.6"/>
  
  <!-- Smile -->
  <path d="M 26 40 Q 32 46 38 40" stroke="#2d3436" stroke-width="2" fill="none" stroke-linecap="round"/>
  
  <!-- Chef hat -->
  <ellipse cx="32" cy="18" rx="16" ry="8" fill="white" stroke="#ddd" stroke-width="1"/>
  <rect x="20" y="10" width="24" height="12" fill="white" stroke="#ddd" stroke-width="1" rx="2"/>
  <ellipse cx="32" cy="10" rx="12" ry="6" fill="white" stroke="#ddd" stroke-width="1"/>
  
  <!-- Hat decoration (small fruits) -->
  <circle cx="28" cy="14" r="1.5" fill="#ff6b9d"/>
  <circle cx="36" cy="14" r="1.5" fill="#feca57"/>
  <circle cx="32" cy="12" r="1.5" fill="#ff8c42"/>
  
  <!-- Arms (small leaf-like) -->
  <ellipse cx="12" cy="35" rx="4" ry="8" fill="#7bed9f" stroke="#2ed573" stroke-width="1" transform="rotate(-20 12 35)"/>
  <ellipse cx="52" cy="35" rx="4" ry="8" fill="#7bed9f" stroke="#2ed573" stroke-width="1" transform="rotate(20 52 35)"/>
  
  <!-- Hands (small circles) -->
  <circle cx="8" cy="42" r="3" fill="#a4f7c0" stroke="#2ed573" stroke-width="1"/>
  <circle cx="56" cy="42" r="3" fill="#a4f7c0" stroke="#2ed573" stroke-width="1"/>
  
  <!-- Sparkles around the character -->
  <g fill="#feca57" opacity="0.8">
    <polygon points="10,20 11,22 13,22 11.5,23.5 12,26 10,24.5 8,26 8.5,23.5 7,22 9,22" transform="scale(0.6)"/>
    <polygon points="50,15 51,17 53,17 51.5,18.5 52,21 50,19.5 48,21 48.5,18.5 47,17 49,17" transform="scale(0.6)"/>
    <polygon points="55,45 56,47 58,47 56.5,48.5 57,51 55,49.5 53,51 53.5,48.5 52,47 54,47" transform="scale(0.5)"/>
  </g>
  
  <!-- Floating hearts -->
  <g fill="#ff6b9d" opacity="0.7">
    <path d="M 15 8 C 13 6, 9 6, 9 10 C 9 6, 5 6, 3 8 C 1 10, 3 14, 9 18 C 15 14, 17 10, 15 8 Z" transform="scale(0.4) translate(10, 5)"/>
    <path d="M 15 8 C 13 6, 9 6, 9 10 C 9 6, 5 6, 3 8 C 1 10, 3 14, 9 18 C 15 14, 17 10, 15 8 Z" transform="scale(0.3) translate(140, 20)"/>
  </g>
</svg>